<mxfile host="Electron" agent="Mozilla/5.0 (Windows NT 10.0; Win64; x64) AppleWebKit/537.36 (KHTML, like Gecko) draw.io/26.2.15 Chrome/134.0.6998.205 Electron/35.2.1 Safari/537.36" version="26.2.15">
  <diagram name="Diagram - 1" id="nDkFdvqPAsr1DY_wX3UL">
    <mxGraphModel dx="969" dy="585" grid="1" gridSize="10" guides="1" tooltips="1" connect="1" arrows="1" fold="1" page="1" pageScale="1" pageWidth="827" pageHeight="1169" math="0" shadow="0">
      <root>
        <mxCell id="0" />
        <mxCell id="1" parent="0" />
        <mxCell id="ODmLF-NcSCFtfLVL55go-1" value="PostgreSQL" style="image;sketch=0;aspect=fixed;html=1;points=[];align=center;fontSize=14;image=img/lib/mscae/Azure_Database_for_PostgreSQL_servers.svg;imageBackground=none;fontColor=#B3B3B3;labelBackgroundColor=none;" parent="1" vertex="1">
          <mxGeometry x="270" y="560" width="76" height="100" as="geometry" />
        </mxCell>
        <mxCell id="ODmLF-NcSCFtfLVL55go-11" value="Identity provider service" style="rounded=1;whiteSpace=wrap;html=1;fontSize=14;strokeColor=#B3B3B3;" parent="1" vertex="1">
          <mxGeometry x="453" y="600" width="177" height="60" as="geometry" />
        </mxCell>
        <mxCell id="ODmLF-NcSCFtfLVL55go-12" value="Get TLS certificates" style="edgeStyle=orthogonalEdgeStyle;rounded=0;orthogonalLoop=1;jettySize=auto;html=1;exitX=0;exitY=0.5;exitDx=0;exitDy=0;entryX=0.5;entryY=0;entryDx=0;entryDy=0;dashed=1;strokeColor=#B3B3B3;labelBackgroundColor=none;fontColor=#B3B3B3;" parent="1" source="ODmLF-NcSCFtfLVL55go-3" edge="1">
          <mxGeometry relative="1" as="geometry">
            <mxPoint x="75" y="600" as="targetPoint" />
          </mxGeometry>
        </mxCell>
        <mxCell id="ODmLF-NcSCFtfLVL55go-13" value="OIDC integration" style="edgeStyle=orthogonalEdgeStyle;rounded=0;orthogonalLoop=1;jettySize=auto;html=1;exitX=1;exitY=0.5;exitDx=0;exitDy=0;entryX=0.5;entryY=0;entryDx=0;entryDy=0;fontColor=#B3B3B3;labelBackgroundColor=none;strokeColor=#B3B3B3;" parent="1" source="ODmLF-NcSCFtfLVL55go-3" target="ODmLF-NcSCFtfLVL55go-11" edge="1">
          <mxGeometry relative="1" as="geometry" />
        </mxCell>
        <mxCell id="ODmLF-NcSCFtfLVL55go-16" value="Data storage" style="edgeStyle=orthogonalEdgeStyle;rounded=0;orthogonalLoop=1;jettySize=auto;html=1;exitX=0.5;exitY=1;exitDx=0;exitDy=0;entryX=0.5;entryY=0.017;entryDx=0;entryDy=0;entryPerimeter=0;fontColor=#B3B3B3;labelBackgroundColor=none;strokeColor=#B3B3B3;" parent="1" source="ODmLF-NcSCFtfLVL55go-3" target="ODmLF-NcSCFtfLVL55go-1" edge="1">
          <mxGeometry relative="1" as="geometry" />
        </mxCell>
        <mxCell id="0OoeHOLDYsBDIjE2Zg5e-1" value="TLS certificates storage" style="aspect=fixed;sketch=0;html=1;dashed=0;whitespace=wrap;verticalLabelPosition=bottom;verticalAlign=top;fillColor=#2875E2;strokeColor=#ffffff;points=[[0.005,0.63,0],[0.1,0.2,0],[0.9,0.2,0],[0.5,0,0],[0.995,0.63,0],[0.72,0.99,0],[0.5,1,0],[0.28,0.99,0]];shape=mxgraph.kubernetes.icon2;kubernetesLabel=1;prIcon=secret;fontColor=#B3B3B3;" parent="1" vertex="1">
          <mxGeometry x="50" y="600" width="50" height="48" as="geometry" />
        </mxCell>
        <mxCell id="0OoeHOLDYsBDIjE2Zg5e-5" value="Integration" style="edgeStyle=orthogonalEdgeStyle;rounded=0;orthogonalLoop=1;jettySize=auto;html=1;exitX=0.5;exitY=1;exitDx=0;exitDy=0;entryX=0.5;entryY=0;entryDx=0;entryDy=0;fontColor=#B3B3B3;labelBackgroundColor=none;strokeColor=#B3B3B3;" parent="1" source="0OoeHOLDYsBDIjE2Zg5e-2" target="ODmLF-NcSCFtfLVL55go-3" edge="1">
          <mxGeometry relative="1" as="geometry" />
        </mxCell>
        <mxCell id="P2f5GnS22CJ_WSi383gp-1" value="" style="group" parent="1" vertex="1" connectable="0">
          <mxGeometry x="163" y="390" width="290" height="70" as="geometry" />
        </mxCell>
        <mxCell id="ODmLF-NcSCFtfLVL55go-3" value="&lt;font style=&quot;font-size: 15px;&quot;&gt;qubership-nifi-registry&lt;/font&gt;" style="rounded=1;whiteSpace=wrap;html=1;verticalAlign=bottom;align=center;strokeColor=#B3B3B3;" parent="P2f5GnS22CJ_WSi383gp-1" vertex="1">
          <mxGeometry width="290" height="70" as="geometry" />
        </mxCell>
        <mxCell id="ODmLF-NcSCFtfLVL55go-8" value="" style="shape=image;imageAspect=0;aspect=fixed;verticalLabelPosition=bottom;verticalAlign=top;image=data:image/png,iVBORw0KGgoAAAANSUhEUgAAA6EAAAFFCAYAAAAdEeuXAAAACXBIWXMAACE3AAAhNwEzWJ96AAAgAElEQVR42u3dX4xcWWLX8Z9nvLvZ7Ga3Zie7VEpRTd3Xkkouv/qlb4snHpDLPFh5sOJqhAKoUdqNUUQjJd39gDpCjLob1A9BSF0mQwhDiMtZooSgpG8TYghRcJkiBYQoVROFJcoGprwej+ePx+GhTo3L7a7/995z7r3fj1SaGU+7695z/53fPf8uCBjx9jvv1iVtSLp3+8b1HUoEAAAAQJguUgR4+513S5KG4TNn/jgniRAKAAAAIFQXKIJMh09f0k0TQM+zdvvG9QYlBQAAACAstIRmL3jmJNUkbUsqTfnxm5IIoQAAAABCQ0todsJnSYPutnW96HI7i8u3b1xvUYIAAAAAwkBLaPrDp2/CZ23BX7EhaY2SBAAAABAGWkLTGTxzejHRUCmEX/nG7RvX+5QsAAAAgGXREpqu8FnSYKxnTfN1uZ3mlpgpFwAAAAAhFCZ81jRo9fQj+oqbhFAAAAAAYaA7bnKDZ9hdbqe5dvvG9WZayq95ej8n6a6kzdrKFSZeAgAAAAihGBM+q3ox0VAuxq8Obt+4vpqiAHoiqSqpL2mVIAoAAAAQQvFy+Kxr0C3Wt7gZ3u0b13spCqBDBFEAAACAEArT5faWCZ8lBzapcfvG9cQu1zImgBJEAQAAAEJo5sPnsMtt3bFN62vQGpq45VqmBFCCKAAAABCT1ygCp8Jn/e133n0g6YGDAVQajEGtJ61cZwygw/07aZ7er3I2AgAAANGgJdR+8CzpxSy3uQRscu/2jeteCgPoKFpEAQAAAEJo6sKnr8FYz3oCNz8Ry7UsGEAJogAAAAAhNDXBM6fB0iobCwYjVzi/XMuSAZQgCgAAABBCEx0+S3ox0VAuJbvl7HItIQVQgigAAAAQASYmijZ8+m+/8+5dSV0NllrJpWj3NjIQQCUmKwIAAABCRUto+MFz2OV2W26s7RkV55ZriSCAnt1fWkQBAACAJdESGl74LL39zrvHGrR6Hqc8gEqDFsJaRgLocH9pEQUAAACWREvo8uFzONGQn8Hdd2K5lhgC6ChaRAEAAABCaOzBM6cXa3uWMl4cq7dvXA8yEkAJogAAAMCSLlIEc4XPkgZjPWtK1yRDy9iQZCWEWgqg0ouuuQRRAAAAYE60hM4WPuuSbiqbXW5nEftyLRYD6ChaRAEAAIA50RI6PnjmNFhW5abocjvNhqTNjAVQiRZRAAAAYG60hL4aPqsmVNUpjZn1b9+4/kbGAuhL+y9aRAEAAABC6Jzhsy663C5j7faN640MBlCCKAAAAEAInTl4lvRillsmGlpO6/aN65czGkAJogAAAAAhdGL49DVo9axzCoQqkuVaEhJACaIAAADADDI1MZHpcruRkDCTRDcV8nItCQugEpMVAQAAABOlviXUdLkdTjREl9vohbZcSwID6ChaRAEAAIBzvJbi8Om//c67dyV1NVhqhQAajzoBVNKLFlFa3QEAAIC0h1DT7fZEUo1DHLsNAihBFAAAAMhUCJXU1KA7JCwEL/MSIOsBlCAKAAAAZCWE3r5xvS+pweG15iYBlCAKAAAAZCaEGoccXmv8t995d67AleIAShAFAAAAshBCzQytTQ6xNTOPDc1AACWIAgAAAGkPoQatofbU337n3akzEmcogBJEAQAAgLSH0Ns3rgeSehxma24RQAmiAAAAQGZCqEFrqD03CaAEUQAAACBrIbQhlmuxpXTeci0EUIIoAAAAsuvC+t7hiSQ/zTv5zW/k9ANf+TJH247g9o3rqwTQifqSVmsrV1oUBQAAANIuCy2hev97jznS9vhvv/NuiQA6ES2iAAAAIISmybNnn+mjjz/haNuzTQAliAIAAACZCaGS9OjxE462rZPstddqBFCCKAAAAJCpEPrk6Ud69uwzjnj8AVSFb30zRwAliAIAAACZCqGS9OgDWkMtBFB96QtfoDAIogAAAED2QujjJ0854gRQgigAAABACI3H8+fPCaIEUIIoAAAAYNHFrO3wo8dPWDOUAJrEIJqpdUTX9w5Lkkoz/GjraGujH9HvHqd3tLXRC2Ef/Rl+rH+0tdEKsVx9SVc1GKM97vtb5nPvaGujOcfvrprz9VxHWxvBksfl3HIP4XhGWu7TymXWc2rK7xn796ecZ2P3c8bzc14vXa/re4fT5gsI5VoDABBCrfvk00/10cef6Pu+9EWOPgGUIOqu4wkhadQ1Sc05f3dd0vaSwaIn6Y6kg3lD8EigOJkl8EryQgqf+5ptgrCq+dTX9w5bkjanBUhjf8oxu7DkcdmVtBPF8TxHIGk1pN+1P8O53JC0tsTvGVc2mnKeTdrPkwiu61XznaPn2skCxxwAkPTckMWdfvzkQ448ATSpQTQrXXP9GX9uxdL2lUzw6a7vHdYi3L+SaelbJoDWtfgSSVVJJ+Z3IDo1igAAQAhNfQh9ynItBFCCqKPm7AZYc+CY3F0gpK3EsY9mu45D2M9jgmi059GCLzMAACCEJiqIfsgERQRQgqijrs7xs0u3FIbk2HSxndU8QXuh1l6zPcch7uO+I2WdVjcpAgAAITTlHj1mzVACKEHUUX7EPx+V/RnDoa/pE9WEsX+zbE9PgzF6rRnPu20uv8jUzEQ9AAAQQtOK5VoIoARR98wwW+Z5wh4X2tBgQpTh52DGkObP2JV43lCZm7OVddgKOu17No+2NryjrY3Vo62NyxpMgDRtP+kyGnEQpQgAAFlwMcs7/8GTD1muhQCahiCapllz/QX+Tk3TZxadx53zZoM1Y/aONbkV86Zenv1zntDcn/C7azMG4dHtmBi0j7Y2Dkb/4Ghro7e+d7gqqTthO3Lre4f+jLPlumI1Qdt7U4OXIM472tq4IAAAFs0TWd75px9/ok8+/ZSzgACahiCalhbRSa2azQnBKPL9N2tm7oYQosf9TLBguYwLrZPsjtnHvqYveeNz2UXGZ9wtAIAQmgGMDSWAEkSdMi489TVYl9NqMDrbeniOiQFiygyoDycE0Zn3z3RpnrQdraOtjd6E/39vyld8nUvOyjUAAAAhNC0eP3mq58+fcyYQQAmilpkWoHHhKdDk7qhxrhcaTNmP6oLbOXEf51i6prrM9mswWdEyvx/LYZZcAAAhNAseffAhhUAAJYjaNylkPTStd70F/m7YejMch0X2sSXpdML/n3XpmmnH/9Gk/3m0tdHiUrKqGkf3cgAACKGWPX5CCCWAEkQdMK2VcBjUzt3vOVoKl9Vf5C9Nmfm3ZcZjthYMsLOG4NGyhH3jziVaQwEAhNC0e/bsM5ZrIYASRO2bNBZuGM4ehhDSllWNav9Ma++4YFKNcR3J3QmfO1xioWkucK4AAJB4FymCAZZrIYCmNIgmYvkW0/1wXMAathJKg1a87TE/F9e40IkhdMJyIJO2bzRcBxNCiK/ps9cuXQ5HWxs7XEKxeM+8gDh7TpXW9w6rdI0GABBCU+7px5/o2bPPdPHi6wRQAihBNH7+hP/XGg1463uHY3/H+t5hbiSwRhGWb2lyd9fegvsYnAmk40Lo1RlC6LSAGVh60fDnls6t6oRz5jz9mMPfHZ3/YmND4a5/G/bx9Of8K70pszIDAAih2fT+9x7rm9/IZboMCKAEUUtmbSUchtLqhKDXjGID1/cO6xrfCntemBz9uyVNWDblTOgJJnyPzyk9t/05fz6QtBrj9jXHbGPN5RAq6WTOn9+VtMPpCACQGBP6kidPP870ci0E0NQHUZfHiPpzBLuol2q5ub53uHPm80DSsaZP+nO47P5NaaksmUCLlDCtg+e9OMlNWVcWAABCaBo8f/48sxMUEUAJoraYbn25CZX0s6HzdMEwO6u6Bi2Ro59Zyi2Y0I1z0vIqrRn/LMx9hFvuLXDeAABACE2LRx88IYCCIBqvSaEqmDOgxTmD7Ki+JnednLSPp3Pu4wqncuqM60Jet3Q+AwBACI3Ts2ef6cnTjygIID6TQtUrYWyGSWPi7sLYl7Q6btKVKTP/jgucpw7tHyJmJtNiuRYAACE0y773OFutoc+fP9d3/vS7+vjTTzn46daX5NQERaaVx5/wI+PCWLBgqA1bIOnylGA8af/6Y8LrpN+XM8E2aYIpn17Gr89x66/SJRcAkDrMjnuOLC7XMgyidMslgMbMn/L/WxPCqb/g7wyjLJuS7sy43MnVKcHsFUdbG60py4r4U4Kqc462NlanvJDY0fTZhxexOWdZ9S2VT3N977CvV1vNa45ORjXvDMJZf8kAACCETpfF5VoIogRQCya1WvYnrCs4aV9K63uHpSXWJGxIem9MYFxkDclJofjhlIDqTyi3g6gOyixdiKNcjzVkLVtroy6gqcHEWGc51yU3QWUKACCEJseTpx/rzefP9dpr2eqxTBAlgMZsUkDLre8d/vmCv7e2REi7E1YF28z8O8n2+t7h9oL7t+g25WYIkPtTjs2qJneJxmLujQmhN2WphRYAgCgwJnRCGHvy9OPM7jtjRAmgUTPjQaMa2+jKDLJ+hOU37ndPO95hlHmPyyt8R1sbzTFhsyqpRAkBAAihGfD+9x5nOoQTRAmgEYuyi6HvyD5etbCPj2IIS4TQ6DTG/DkhFABACM2CZ88+00cff0IQJYgSQKMRZWul9RlkI27pnVR+07ptzhJmWJvSnjsUAQCAEJpxjzK2XAtBlAAaIz/hv9/6/pmge9a0Yz9LCJ0UnntcZtExE19RxgAAQmiWPXn6kZ49+4wgShAlgIbILDlRivhrbK+vGMe4VH+BkLgy5dhMa70lIEWvSREAANKM2XFn8OiDJ3oz9zWCKLPmEkDDM208aFOTly8ZujkhzPqO7+PuDL/jLZ0/W+pooHwpsBxtbfTW9w57k8plygy5N6dsU4vLLXKHkm5RDAAAQmiGPX7yVG987atJWq6lZUJJSy8mKelpcgvGaIX9kgZjwl5aK5AgSgAN0bRWwt1Z1uNc3zucGNLW9w59G+sZztDSGxxtbezM8HtyU0LouKAdTPl7tyTtLPB9knTKJRct8yKhpWjHFAMAQAh12XC5lh/4ypddDB8tUylsSWrdvnG9t+DvGltRf/udd31ToS49f/585Tt/+t1q4VvfzBFECaBL8KdUwmfdn9Mpoemq7Kxn6U/5/zPt39HWRn9KGKmu7x2Wzpmt9nBKuWyv7x22zJIgowH0riZPStQf/TsJcbK+d7jI31u18QJjxB1CKACAEJpxjx4/cSWENk3FO7h943osweP2jeuvVMR+5he/Xf0Lb77pa9Ci5YvZNAmgMzJjDiedL/NU/Kftu29pN6e19J7OuY/VKfvYOBvi1/cOgyn7f9d02+3NUVaHXHax3uv3KQYAACE0wz759FN99PEn+r4vfdFG0GhKunf7xnVnWiD++l/5yy1TOT6QpObp/aoGY8lqYj07AuhywXDmfTJha9KPVKeMf3R+HzW9tXdF568tuTvDdpTmuF77w+sd0TNdcgO5s+YtAACEUBseP/kwzhDalHTHpeA5iQlDLUmb7/zKr1e/+v1fJpASQMeZNmvtvGMOp1XUfcU426hp6Z103vfO6T67TGD1x4SYYH3vcFPhtaatWQjzWXeHEAoASCOWaJkrhD6NermWnqRNSW/cvnH9WlIC6Fk3/tJfbNVWrmzWVq54klZ1fisNshlApXBbCWcJrStJ3j8zPnZS+CuNW1blaGvjwNxTlj3n1hI4FjQNKHMAACEU0uMPn0ZV0Vi9feO6d/vG9YPbN66nprWhtnIlqK1cWZP0hgbdA2lJyXAAXd87nBbQ5m0lnCXU1WLezWmh9+ECv3Phsa8miK5qsQmaAg0m6Glw+cXPtDwTRAEAqUN33Dk9evxEb3ztq2EFioakwyVmtE1SGO1L2mme3j8woWBbdNXNVAAdMWl9zEWuhUCzrbk5+vMKeRtGnU4Jmo0Fy+x00ZBqZnkNTItpzQTl0jnXYM98TiU155ilWBp0HV1m+ZZgwf8fRHSehnVfnlQus2z7oaa/uAgiuN52Y7gX9KZ8TyAAQCpdWN87PBFjTubyzW/klpkpt2cqJZG1eL79zrulWQLeebPexql5er+uwXg1ZtbNTgAFAAAAIZQQOq8vfuEL+uH8Dy4SPndv37jeCDFs+hos3fCW+ee0pS8mbVtPg9aU9zRYbzSWgNo8vZ+TdEvSBmGUAAoAAABCKMb44fwP6otf+EJs4fPtd97NmeM0XJczjkXMWxp0F25E/UXN0/slDVpFa5xdBFAAAAAQQnHGD3zly/rmN8Y33H32/Hnro48+OfypH/vRhQOc6VZb02BJi2WPUV8vjxsbN0bpkl5tkVyLa9xq8/R+zYTREgGUAAoAAID0YWKiBT1+8lRv5r6m1157ZYLhQNLuT/zojwRLBM8NLb7G5nC9zofmn70kTXxUW7nSbJ7eD0wQrRNAAQAAAEIojEcffDg6U26gQbfbucOn6Wpbl3RT83ezbUm6JymwPdFQiEG0L2mteXr/nqRjZWusKAEUAAAAhFCc7/GTD/W1r3x/8/XXXztcMHzWTPCcdxxkS4MZdptpXt7FtIq2JN1VPGNgCaAAAAAAIdRZjWfPPtv9iZs/MlcINN1t6yZ8lub9Tg0mCspMSKmtXOlJutw8vX+sdHfPJYACAACAEDqjnrIziUxfg4XDG0dbG/OGz0VbPYfhczfNrZ4zhNG15un9Uw265xJAAQAAgIyH0DUNuksuMqYxCXqSdiU1j7Y2+nMEz+FYz40Fg3ogaTNLLZ9TgmijeXq/r3SNEyWAAgAAgBA6J998GpKumXAwbPErJbx8GpLuHG1tBPP8pbffedc3ZVBfIvRu3r5xvckp+koQbTZP7/cknaQgiBJAAQAAkDlRrBPakLR7tLXRW987HK5xWUtgYAiOtjZW5wieObOfG1quNfhAg663fU7P8Zqn96sJD6IEUAAAABBCww5xJowGkpTEQHq0tXFh2s+s7x1WJW384Btfr33tq9+/zH71JK2lZZkVgigBFAAAAIg7hI6Gq+FkPv2R4FaTtBLxd08KAYEG62venLANl4+2NlrnBM9X1vW8ePF1FX/oWwvnKRNAaf1MfxAlgAIAACDT4liipSRpX9L++t5hQ9K9o62NpgZrXQ5DnW/C3CXzz7AnNwpMGH6oQTfb0e8uTQihpTPbWdeL1tyXPHv2mZ48/Uhf+fL3zbtta7dvXG9wKi6mtnKl1Ty9v6bBWqIEUAAAAMBxcbSEjquMN0cC6StMOBz9XNL5y5u0zO9rSXpk/qw3/ExbSsV0Ex4XYA4knWrGbsRf/tIX9UPfenOuQMLMt+Font6vy+3lWwigAAAAgMUQerZyHmjQNTYYFxrX9w53JG2f879W55299szvrUp6ENbOFH/oW7p48fVpP9YyAZTut+EG0WMtPiMxARQAAACIwUUHtmE4q2zNhMKeCaUPJbVGAubKhEC37PeH5v3vPdY3v5EjgFpQW7myZsaIurRWLQEUAAAAcCyEnlXSSGvW+t7hMLiVzvnZ3nCyo3HMJELDUFI1ofOS+X2hh5UnTz/Wm8+f67XXXiOA2nFNg5ZtFyYqIoACAAAAZ7jQHTd13sx9TV//ga8QQC1xZHwoARQAAAA4x2sUQfgeffDkvEDCEiwxqa1caWgw8RUBFAAAACCEpt+zZ5/po48/Gf2jXWbBjd2aCYMEUAAAAIAQmn6PHn/eGhrcvnH9gBKJV23lSl/SLgEUAAAAcMtFiiAaT55+pGfPPtPFi68fUhrWguhB8/T+TcUzWy4BFEDqeOWKL7vzRgTdTjvgSAAAIRQzev97j/XTP/5jTUrCqk1JJwRQAFiIr/PX6I41iHIYACBd6I4bocdPnlIIltVWrgQRV2AIoAAAAAAhFHhJVGNDCaAAAAAAIRR4WUStoQRQAAAAgBAKjBVmaygBFAAAACCEAuOF2BpKAAUAAACWwOy4yJI7Wm6pAQIoAACWeeXKvuJZfm2czW6nTV0AIIQC09VWrjSap/e3JZUIoAAAJFZVdtevzXEIgOXQHRdZs8i6rQRQAAAAgBAKLOSQAAoAAAAQQoFY1Fau9CTNGigJoAAAAAAhFFjaHQIoAAAAQAgF4jJtXCgBFAAAACCEAuGY0iWXAAoAAAAQQoHQBQRQAAAAgBAKxOUeARQAAACI30UNJmk5pSiQJbWVK0Hz9D4BFAAAAIg7hB5tbTQoBmRUIKlKAAUAAADiQ3dcZNk9AigAAAAQr4sUAbKqtnLlgFIAAAAA4kVLKAAAAACAEAoAAAAAIIQCAAAAAEAIBQAAAAAQQgEAAAAA+NzF9b3DqqQcRRGNo62NgFIAAAAAABNCJe1L8imKyFyY9gN/9J0/oUU6Os+LhTylAAAAADgUQmHf6xRBJD4jgALA4rqd9o6kHUoCAEAIJYRiuk+LhfxzigEAAAAghILjELWPioX8ZxQDAAAAQPjB+WgJDc+HxUL+GcUAAAAAEEJBCI3aB8VC/lOKAQAAACCEghAatcfFQv4TigEAAAAghIIQGrVHxUL+I4oBAAAAIISC4xC1/1cs5J9SDAAAAADhB7OjJXQxf1Ys5D+kGAAAAABCKAihUftusZB/QjEAAAAAhFBwHKL2J8VC/jHFAAAAABB+sBhaQmf3nWIh/z2KwU1euVKVlDP/WTKfvqTWyI+1up12P2X7PdzXUWf/rGXK4nPdTjvgrInkePhn/mj43z3zSeV5iNTcO3KSqiP/ffYeKkn9bqfdogSR8utj9FoY/ffR52mv22n3KC1CKAihUfrjYiH/iGJw6uFQk7RiHgzVOf7ubrfT3klgsBlWGFfOqSgu8jvPBtSWpIcmIFHBnK0C70u6ZI6FP+ff70sKJJ1KalKRQUTn6fD+OLx3aN5zdcr9o2c+LUmPzDnNSxYk8VoZrVP481wL3U77AiVICAUhNAp/VCzkeaC68ZCoS7pqAigPw3BUz1ZMTQUzkHRPUkAofalCf9Ocf6Ulf93wRUpN0r5XrvQkHRJIseQ56ptreSWGe4f04uXY8Lu2zXb09OIlS8A5DYfv6RvmPpyjRAih4Di4pFcs5N9PWQXFhqW6b5nwuR1Cxd/14HnTVOZceBgOK7PDCmVT0mEWK5MxnX8lSfsmkDYk7c5b1mO6V8Yiiu7dNvdneP9Pwvnu4L1jeD7XzUdeudIyodT6PeTM0I1F2C7j6khLtLXncpLvOaYutK14XtSc7dprjSvDcFwoD8KPG2gJHe8Pi4X8/03ZPp1Y+t5A0uqCD4rjtIZP8wDfMBU1l9/CliTdknTLK1cCE5CCtN8ALL78qEuqe+VKU9LmHJX24fbacCGicti2eArsStpx+N6xreS04Ay7BQ/vIXe6nXbD0rbsxxU+Itx+a8/lJN9zTPg5Vvy9qaoW61+j+7/qyLPbdnm0XiPjOBNC+bz66RYL+T/j9LB6s9w3N6lSCvet5JUrx5K6JtwlqRuQL+nEK1dOLLasR318ql658sCBFyA1SV2vXNnhjgBzbvpeuXJi7h11JbMLoS/p2CtXuuZFDxDHtVMz103sw3lM8HNhWFfVoXuATQEtoe6EULzs94uF/HcpBmsPipwJn9WU7tst2W3dCfMh4i/QWuf6Mbql8FoawrLtlSsrkq4x4Ut2w6di7D4Yk5IJo9vmHtLkSCOi62fHgeduIPvzWVxy5JC8Zfn7T2kJdSeE8nnx+YNiIf+nnBbWHhRVSQ9SGkB9s2/bKdu1mqQHJrwl+gWBaZ3ed3QTfVPOVe4Umbonlrxy5a4GL+b8lO5mSdJdr1y5a17UAWFeQ8eOPHfvOfIccYHV51i3024SQt1wkc/nn98vFvJ/wilhNYCmrvutCTep7Vps5DSYUCeRlciR1vd6AirrJwTRzNwTb2nw4qqWkV0edj+vcfQR0rP3gUP39cCFZ4gjz+iq7eNACHUDrZ+Dz38vFvL/h9PBegDNpXS/bmXkUNaSFpIS2P07p0GrES1G6a48n2jQKp+14zw8v29xJiBN93UzZMWF5c58y8fGt7z/p4RQQqhLn98rFvLf4VQggIa8XzWldGzrFNWkBNEEjz8uyYGZFhHZ/bCr9Ha9ndW+6UYJLOLY0ft64MgzOsvfHxBCCaGufNrFQv5/cxpYDQF3UxhA62ncrznkXA+iKZgAq2q6eSNd943UvZBbQp0gigWuIxtLsMzq1IFtWLH8/VYnJRouUUMIdUOWx4D+12Ih/8ecAlalcQxoXYO3sFnnehDdV/JbqW+ldZmcjAbQYwLouUGUrrmY9Tq6JYfH9jsyA3SWW0KD4b8QQt2Q1RbQB8VC/o84/FYfFmkIAQTQBAZR1ysqczpmfCj3jZTbZ7IizHAd+XJ3dvNRtoNozvIz2bf43fcIoYRQ25/fLRby73HorT4sakrZZD1UJCcGUWeCknn4pqkba0nZmfgqjffCKveNmRx75UqJYsCY62g4tCcJXOiSW7V0nJwYD0oIJYTa+vxOsZDvcditPyyOU7ZPaQs2UTzwXDnmd1NYvttU0BN53yiJCaZmlbrnBsJ9SaHkdGV3oUvuJUvfa/M51e922i1CqFuyNAb0t4uFfJdDzsMiglCd5UmIZlWz3aXOK1d2lN61Wrc5xRKH+8Z8fNPjBBi9r9eUoLV0zVItPdvXkqXvdWI8KCHUHVlpAf2PxUL+DzncPCwiCtUlju5sZWWrW65pdUpzUKvL3tttzH8+7ih7yzeFYZ8x0Bi5jpLaQh5Y/n5b9x6bM/OeEkIJoTY+v1Us5P+AQ+3Ew2I/ZfuUxlAdJZvnQBZaCjkXk3HfKImW62XuIYyBxuh9PYkvJe45cB/yMxR+Xwn+hFBCaByf3ywW8v+Lw+yEW0pRi2Eax7bGpB73w89U+usUPRzBfWM5G7SGwtzXk/pCInBgG6oxH6+cxRcGL40HJYS6I81jQE+Lhfzvc4idUJK0kcJQTUVoMdsp/z5gXEXMl90lCtIgJ1r9keBJ5rqddt+BIBp311ibraCvTAZFCHVDWltAf6NYyP9PDkbmRYYAACAASURBVK9TITRNkxGVCDZL8eNqDaUVFI7ZoAgoRyQ+1IThXsbKz7e4r68si3OR68eZEJo2v1Ys5P8HhxYRcjGA9iW1zOfRyJ9fMi8AfAfLMKCyiqwwL0RcbcEb3j96kkbX0X5Lg5eIVbn1IrHqlSvVs13sgAQJLH9/yStXcqZVNg6XXCprQighNAq/WizkOxxWRFyRrDtUcWxKOpylMmYmUrrqyPb7XrlSMtPVR6nOWQtHuPZCpGfuH3dmvH8MQ/SG3BjfXzPBGUicbqfd8sqVnuVryVd865ba2s/eefUMQqgb0nQcfrlYyP8ehxQRc6UVtClpc54Q1+20m5KaXrmyq8HkKL4DZbkW4QuDmhi3C3e40grak7Tb7bQbc1aae5IOJB145cot2Z+Z9KqkHU4rJFgguy9KqzGG0KrFMk51+EmytLSEfrtYyP83DieiZGZ3c6EiudnttA8W/cumMrlq1iq0GaprUYZQSTcdPp1a5uH46MxDsmQ+l8xLAkJ0Ou4dVbnRenhgAuhSXfC6nfaBV64Ekk4snqPVBbsTLtt6artrckuDXjBh/B7YdWo5hMYyOZGl5WBGy5gQSgiNzC8VC/k2hxIxqDsQCtbmbcGYUJHc8cqVvuyt3ZnzypV6WPvj6AuDUX1Jh5Ias7Zge+VK3bwoKHH5JZoLL0TWwrzWTHfCVdtBVHOOret22ptL3ltOZLcXyWa30w64pFKhKbtLNlVT9j3nOfdaYXZcd0Jokj/fLhbyDzmMiIntMV2bYQc206LatLhPVyP6va4F0IYkr9tp78zZhbrR7bQ9SZtcfonmW/7+tShe9pixpLsZLldgmetnOCGYLTnTSyNqb1nav9a45y0hlBC67OdesZCnOwli4UB3uuYyXXCnVVAVTveuhcJiRAvPX3Xo9Fnrdtpry3SBNMf+ssXjhOXYbAk4iCKAnjk3e5b27S1OLSRcFpZqcWo8KCHUHRcT+rlbLOQfcPgQI5vd6fqKcOykCUc2W9r8hPzOReyG2H26JWmVIJoslsdD9RVPS6Wt1tASZxgSrmn5++MYF2rrHnhKCHVbEltAf6FYyP8XDh1iZrN752HUa3mZoGQr3ITaamkq/S5M6BN0O+2dkI9TS3TNTRqbIbQR0zqAtirSVU4vJJm5p9t8sRjpNRRTd9+xz+Bx/4OJidwJoUny88VC/nc5bJk2HEMxfMM16QZ+tvK3ogW6jVnuitvXYEbLWCqskm6loJLuO3KuRtJ63e20G165clOMh0sKm11G78RUke6b2XLjPieZPRphhZWepPfMP3sTAtvoOXcppHMwkL0X3VGHRFt1p9akF3CEUELovH6uWMj/Docsk5oajJsI5pnURXPOmjiBzVbQuFoypMHMrTZCaMkrV0pzHttJVhw4Zxsh7s+4gNvl1pAItiphfdPKEpdT8WIEydAaqVPMU08IItqeezbrGV654kc447Jz40EJoe5IynH42WIh/585XJnS04vlLGyPgbM5yc2duL6o22n3vHKlZ6nSXFV4k5u4UBHejeFYNWR3jTnMxlZrXdwT9wWysO6wV65UYw7bSK6GBuP0e45tV2D5+/0It8HWS+FTQqj7ktASeqdYyP82hyoz+uYhceDCxpiZW229yWtZqFw1Zac1dEUhjCuzPP7k8zKMqZJzhxCaCLbOybhf3tkKgnTJRVLDp6TPXyq2LN4rLqXw/jcxVDMxkTsh1OXPzxYL+f/EYcqMpgZrKR44tE2+xe8OLHznacIr6i6E0Fim3Dfdp3oCzhfrGtoO9FgBzupJWjVLZLl+rwwsfnckz02vXCnJzkuiYNr9iBBKCJ32uVMs5O9ziDJjs9tpX3OwImMz1NhYP6yV8HK+5MA500zpdyFZvp6h+wdw3r3xcoRjHdPwvB8qmcAY+u+1tD9TX6YTQt3g6jqgx8VC/rc4PJmx5ljr5yhrk9zYeHiat8U2XgTkTNfnJL80kGZ4A5uiigvcZuNaoDUULmg4+lJ72vM+bUu1+Laew4TQZHCxBfSfFgv5/8ChyVQAbVCRe4XNFoUkt4aWLJ8vsXZnTtBbfsSvRBEgowF0LaHbbvN+HkVdx0rPpFmei4RQQuh5n39SLOR/k8OSGbsuB1DTMmdr0ouexV239d1pCKFBRr4TCQihEXWxA1zVSnAAlezNySBF0+vLxkv8mZ6HhFBC6NnPzxQL+X/PIcmMoNtp7zi+jTa7dj60+N3vWfrepQK/IzPj2mhFPhVwvjpFgIzoS7qW8H2wOcbfj+B3llx9HrJEixtcOQ7/uFjIBxyOTEnC20qboaZn+WFuw7Jdd2wv1dCzNAaJyWAwzk1JOzF+36aF65DzH5J0mIAZcCeyvFZ3qGvueuWKb6kYZwryhFA3uLBO6GGxkD/hUGTKbkIeFjZDjc3ySep6f7ZbQnsZPFcwXd/ivaTklSs7cfU6sbCuMSANXgDupGRfbK3VPXyGtkL8XbHfa2e9B9Ed150QavPzj4qF/G9wGDLnICHbeYlDFfsDMKkvDayFdyr+zrN9fLYd6aoORGU3RfuSlnGhNupPwaw/SAglhB4WC/lf5xBkTiNB06ZntSW0l9Dy/rrl8+VRhoMOxnPhfncc0hJIgIvXV2rWS+522jb3JcyXVSWXAzwh1A221gHdLxby/47iz6QkrWtorfXAZndlm9+95Gyetlt7bAZB1md010MHtqEq6YQWUaRQM0nrgc4oSEGdx3e53AihbrDRAvoPi4X8r1H02WT5Ld+8aDmIXynB226zIkRLqLtcOTbDIFrjkCBF7rFP4QljQiFLL7v68wxNIYRmM4T+g2Ih/28p9swKkrKhtBgQYBPmEYefEDqDnKS7XrlyYnH2SiCT9YqE7FMY94Wq62VGCM1eCP3pYiH/qxQ5lbGEyHGsrFjm4WU1hHY77YBrC+ecFz25N4Oxr0GrKGEUSdZPYVfc4WRztu4ZYUwoZONZPFfrMSE0WyF0r1jI/wrFnXnvUQTJebgT/jleCE3g6HYNw2jXK1d2lhyTDcQtzS/fbN0zwmjFXHG9vAihbohjEqK/Xyzkf5miRsIeGD6HKzmY+ROOc33cWknStqSuV6488MqVWwRSJECaX77ZumeUQrj24+6O25t3QsWLXDtOeD3i379dLOT/DcUMzB2qbIfgpIW6TI/h7XbagVeucOG4e3yaXrnST8h1VTWffa9caUm6o8EMpD2OJBzzMMX7Fli+Byx0vZsAm3O9rAih6Q+hP1ks5L9NEQMLOcnofq8kdLsZk4lpmpLqCdtmAilgQbfT7nvlSiA7vbJWtPjaqyUL23s671+gO647ITSKz08VC/lfoniRYJcoAsyBMZmYZjfh21+VtC+67ALOhqsQr/VF2QjNASE0maIYA/qTxUL+HkWLhGOMIQjCCI1pPQxSsjsEUiB6ttZVXyZIxv0Cv7dIzwxCqBvCbgH9e8VC/i7FCsBCpTjr6BLsvs2UXntnAykv8YAlmaVarLxcXGKt9LifxQsFdUJo+kLo3y0W8r9IkQKwgEovklKpbKR4F4eB9H2vXLnrlSt1AikQf8gKgb9AcM0p/jGhC3VZJoSmK4T+RLGQ/9cUJ4AllSgCpNymstF1uibpeCSQ1jj0QDwhKwSLdKu10SMpIIQmVxhjQP9OsZD/BYoSKeNTBITQOTAeEzPpdtp9SWsZ2+2apLteufK+V67sMH4UmJmtltBqTH9nGS1zPyWEJtSyLaB/u1jI/yuKEUDGPaQIMEcQbUo6yOCu5yRtazB+9JgwCky9V/RlZ7x/dYGu9HFPShQs+hcJockPobeKhfy/pAgBAJi7crmpbE8mVTdh9IQwCkQTtpYNohH//LIW7qpMCE12CP3xYiH/8xQfADiDLsHJsypmNfb1omWUSYyAV92zeG26HEIXDueEUDcsMgb0bxUL+X9B0QGAU+gSnDCmqx1BdKBuwugtigJ46T4RyM5Lxpm71y6xpMuiFh4PSgh1x7wtoH+zWMj/HMUGAABBNGQ5Sft00QVeEVj4Tn+On407hC7VOkwITV4I/RvFQv6fU2QAAEQSRJuUxueV3wdeuVKnKIDlQ9eCcnO8DErMpESE0OSF0B8rFvI/S3EBABBNEO122tck7VIagwqwpGOvXNmnKADnJyeKtSXUdFEmhGYghP61YiH/zygqAAAir1ztaNAq2qM0JEm3vHLlmGJAxu8LPdnpsr/iYAhdOpATQt1wYcrnrxYL+TsUEwAAsVU4A0mXlc21RM9TJ4gCVlpDp4ZL02U3zpmtT5f9BYRQ960VC/kGxQAAQOxBtG/WEl2Vva54BFHAHacWvtMPI6i6FsYJoQRQAAAwOYwG3U57VdKa6KJbZwkXZPheYGXishmWX4kzhPaXHQ9KCCWAAgDCdYkiSHUFtNHttD0TRrO8nMu+hTUJAVfYCKK+Q8+eIIxfcpHziAAKYGyF8wKlgDnlKIJshFFJDa9c8SXdlFTPYDHcleRxNiCDTiXVYv7OaSGzGvP+L42WUAIoAABYLIwG3U57TdIbkjaVrdbRkleu7HAWIINstISODZleuZKTVIpxWwJCKAEUSLsWRcDxAhIQRvvdTvug22lf1qB1cFfZGDu6YSrAQJau956F67s64VqLezxoKM96QigBFHBZnyLgeAFJq6B2O+0dM3b0sqRGiq+NnCQmKUIWBRa+s+pACA1tvy9KuiM70w3jhWvFQr5JMQBA4pUoAowE0pYGkxiteeVKTYPxo7WU7eaGV64cdDttXkIhS+4p/rHg/pgQGOekRKFlxotHWxsNziO7CKAAEIoVQigcDqRNSU3TpW4YSP0U7Npwf6hPIksCh55xcbaEhpZZ6I4LAAgLLSHA9DDaN0u9rGowfnRTyR8/usGRRdauYwtB1HZ33J4ZD0sIBQA49VDO9MREXrlS4izAnNdMz0xoNBw/eqBkvsypcv4jg+7F/H25s9dZzOv1hhq6CaEAXMZsq5jrAW35+6mEY5lA2up22pvdTvsNSdeUvAmNfI4iMiZw4DpL3PqghFAASfCIIkgcm5XmquV9Z6kKhBVIm2b9UU+DiY2SMHfEVY4cMnadthR/V/pLU/47MaGbEAoACFOWW6+rHH6EXMkdjh+9ZgJpw+HN9TliyKAg5u+rWnruhDoelBAKAEgVy+PSvs4RQISBtDfSOupiGM0xLhQZFPcyl/6U/05M2CaEAnAZY0I5ZvOyWQmmJRRxhtFVuTerLiEUWRN7V3mvXPHNP+O83kKfhOni+t5hnZtGdI62NnYoBWBhVifl8MoVv9tpBxyGudgex0sIRVbCaOCVK5cl7UuqO7JZvuxM1gLYug77XrnSivn+XzXXWWJnxpWki0rPYskuWqMIAGRML4sh1LyRZmIixF4BlrTmlSsPTRi1jS7pyKJ7MQfCSyNhNA4tc68JPYQiogB6tLXRoBiARAcaq7xy5UQxvyTsdtoXEn7MVix9r8/lCoth9MArV/qSji1vCr0BkEVNSdsWnjdxPe+CKH4pIZQACrhcsep55YrNTShZLoJSAg+b7TGhtirBK1yxbjIvc2K9Brqd9qaF+2XDK1euSqpx1IFYr72WeQkUV2+Ykleu5GKsI0Qy+RIhlAAKgBAa5sO4b/nFQc4rV6pm/bY4+VwuzsrSsdm0HELpko6sCmK+9vwY6whBFL+U2XEJoIDreha/29r4Jq9cSXK3tsDy9/sWjlWJSxW2mXX8bNZD6I6LrLoX8/fFNQY8kvGghFACKEAIdbdCZSPUBCk4ZtJgwr00fx/gUmUYQPwvX+OqI0R2PyGEEkABQqhbQdCFALys9yx/fzXm9dMYgwdndDvtJqUAxH7d9ZTOtc0jC9eEUAIoQKCZEELN4H8bbEx0E1bgDxw4b+pxfIlXrtRFV1y4p0cRAOkJbBbDNSGUAApkVlZnW7Xxve+l5JhJ8XWRpSsuXLlnEEIBu9LWFT7SUE0IJYACrrNdmfLj/kIz0U0uqWVtJjGwfdxKppUyyuNUF7Pi4lXMEJt+TMCE8559gaR+inbpNMpfTgglgAKu39Rtt6rZ6BZrK9iEGRwDB06f/ai6U5vfu88VijHnRymju97LyH7yogEuP/sSsS+EUAIowE3dvUBoI/iGPfbjoSMVxaiC4jEV0cSw8SIrqy1lPU43ZNxpWnYkyvGghFACKEAlcgZeuVKL8btysjPbatiVx8CRc6cedrdcr1zZETPiJomN7nErlveZ7qLRukQRYIwm+0EIJYAC6WH7zWKck8/YCjehBn3TjbrnyPlzHFYQ9cqVW5K2uSQxhW/ri82LLFut9K2MHN8SpzjGPPt6SkePgMjrXYRQAiiQBIHl76/FuFSLrdlWT1N43EILol65kvPKlWMxDjSJrHTHtTgu1LdY1o8yck5VLS7fBfeloTU08uc3IZQACjjPzLZq+w37rai/wFRabVUgoyhf16arP/bKlZN5w4EJrw8U09qjSE0wstVifjXNFVeH+FxaGCPp40L7cUwKSQglgAJJYTvQbMTw5ttWpbUfxQQE3U7bxbfBvqSuV6488MqVW1654p89rl65UvXKlZpXrux75UpXg0mISlyCiWXrBVY97tZQi2PKh3op+55JWCMYSXr2zSOI40sucqoQQIGEaMruWLycBq2hOxFVHkuy19IWRHzcXJzEp6qRyVu8coUrLL1sBpZ9Sddi/L5bsjcetGfGw8XhPQfOq5pXrlQdWEYM7gY5P6HbHktLLi2hBFAgERyZ6GbbK1eimnXy2OJ+RdnKfIezFw7cO2wGlXocX2ReZG1Y3NcshrFjxobCwnM1jgBNCCWAAnAs0IRe6TCVVN/iPkXWdch0S+pz6sIymwFpP8KXV8N7SE7SXdldu/ZeBs+rqqQHXrnic4nBRpCLQC+uF3eEUAIokCQuXJ9VSSdhBVFTebHZCto0Ez+l/biBEGpLztwzIgmi5l50IvtrgwYZPbdK5vh+Ps581nt/1C8nYI9jy5Q5eR0zJpQACiTppt7zypVA9sdZDIPo6jIBzrSAHlvelzhaLw4Vw+zCwASnsju78TCIbnY77dDqGiMvsUq2K64xjgcdVpRdW6/383HmI2PMeyNBpKpXW6oDSatcnqkVKHmzqsc2sy8toQRQIGkOHapwLNQNyytXSl65cteBANpXDOuZmcop91jYrgzaltOLZYL8ZX6RmcH5rgYtoCUH9o2x3+crafDS1JfdrtKwI4ld1GO7V9ISSgAFEqXbaTe9cqXnSMWrpEHrRiDpcNK07KbLnK/BGn51R4qzEUNX3KFdsc4m7N03el650pL9LqsahhKzPXc0aEWc2l3YdN30NVgaxKVunP0wW3dn1OOsBoEu/Osqzh4NWQ+hBFAgmXZlvxXxvErl6EOnrxdvvnOOVRqHYmtVNiGgQRCF5QqhS9fh2e6bwZmQVXL8/hH7feTM/YQzGk7rdtp9R4YQORmasxxCCaBAcm/sDa9c2ZYbraHnBdIkaMQ8hmv48oAQCpthyeWxyX4Cy7Qv6cDSd/ccfQYAo04TdG2fxvllWR0TSgAFkm+XIkhW+ZnQm/bjFnBqucmcfxyfkIN9jF36zwuhgOuabCshlAAKpKtC2aBCubADC62gw+O2o/Quar+pmN8kY/7QRBGEGgIPLH4/1xqSUFdpKRlrZbfifqGUtRBKAAVSdk0n5Obukr7st0aupbBcm91O+4DTy/kKYVPpfQkS+3VssRVUHEck6fmQgG0M4v7CLIVQAiiQvgplT3TLTVrFcfhmOE1BNG37k3abFMHSGt1OO3DgugOS4JRtzG4IJYAC6Q2iB0rWmAubmpOWkYn5uDWUjrVD+5JWbQd7zHXuBdwzlg5/mw4cxx5BFEl59iZgGwNCKAEUwALXOZWRqXpyrLWu22mvJTyIEkCTfc/guC12zq85dM7f4ZDAdeZ6cbmO0rJxTac9hBJAgezc4KlUTq44XnM0LG0m9AXCMIDy8iPZ9wzMWa9y7JynRRtJEbBt2QmhBFAgW5XKlqRVguj5Qc/VsGTCwKqS1SLakuQRQBN/z2iKMeXzBtCmY8ewRxBFQtxj27IRQgmgAEEULyqODcePW990zU3C7LJN0QU3TfeMHaVjbHKW7yMsu4Mk3GsCV+smtiYZS2MIJYACBNFVsZB5IgLomWO3Kbe7VW92O+1rBNDU3TOSPjY5Sn3X7yOmAs3xQxIEbFN6QygBFMAwiF6W22MwMl1xnHDsGg4eu5aky6wDmvogyvF9WU+DVv8k3Ec2RQ8YuM/FLrnWlo9JUwglgAIYrVT2u532agYrlkmqOI47dj1z7K7Jbot2X4PWz8uM/8zEPcP1lvg4NTV48dJKyLEbji0HXBY4eq0TQgmgACKqWGale+5BkiqOMxy7ZrfT9kwwiPP49TWYsMaj9TNz94uG6EWxlsRu5+a+x4zHcPkc7cmt2eD7NusLaQihBFAA0278galYpjVQ9DRo/dxM43jFbqfdMGF0OItuP8JyHIbPHcZ+ZreiaFri4375YVvDnPuNJN8rzL2eaxeuChzaFqszSyc9hBJAAcxaOembVlFP6Wnl6GnQauHZmt0u7pcJ3U57rdtpv2EC6W4Ix7KlFy3IhE+cF2h2Ux5Gh+FzLQ3nvmnZ8cQYX7jplG0ZuEgABZCximVP0qpXrlQlbUiqJ3A3WpIOk9xiEUYgHQ2gXrlSklSSVJWUM398aeTfh6H9PQ1aSVqSWgROTDnP+pJ2JO145Upd0k1Jfgp2rW/C56G5J6bxuG165cqhuc/XzP0BsH1uNr1yxZXNsdoSmtQQSgAFsOyDoCVpzStXNk0QvWkCjOuVxjtMkjP25UJP2R3Lh+jPsYakhnnhUUvAPeO8e0hT0r1up93M0H1h0wTSqnmBsKIXL6wAW+GvZnkbrL+EvbC+d3iiZL3VI4ACiISpXPqSrpp/5mw/JDSY0r1J8EzMObQjadvCVwdmHCPs3DNWTKhxLdgEGnS5C7LQZX/B41cy9/rRY3dpzvt/T4NeFmfL3rmKP5w4745lvxfWbrfT3rG5AUlrCSWAAoiMeWveMJ/RCmbJVDJzEVYyA1OReWgqKlQYk+ktiiDT94zcSBh9Sy+6h0cdTlsatHSemvtIixdXMx+/nvnPJiWCmJQc2Abr53uSQigBFICtCuZLRiqaw4fJvA+UYYVRhE0qFyGhdcWNe0ZfgxdK517XXrnij/ynv2TglGhZA5LIdo+JngsvqZISQgmgAFysaAKueEgRJOLeMXrf4B4CZIzpYWV7qI8Trf5JWKKFAAoASIoSRQAAGMN3YBucWCbG9RBKAAUAEEKnCyh6AHDeiuXv77syO7bLIZQACgBIjDPj/eLW4wgAgPNsL83izARcroZQAigAIGmsTTZhJtECADjKK1fqsj8e9J4r5eHixEQEUABI9oP2xNJXt7qd9qbFXbfVzSrgrAMA521Y/n5nuuK6GEIJoACQfD77HW/45pQDAHd55UpN9pdmcWotXJe64xJAAQDLKFmuYNjqZnXKoQcAZwNoTtK+A5tyz6VycSWEEkABID1stcyVzBpsNty0WN4BpxwAOGtf9pfvcqorrishlAAKAOnSt/jdftxfaIKvrRkPW91Ou88pBwDu8cqVW5LqDmxK07WysR1CCaAAQAgN03ZGvnMo4HQDACcD6L7c6IYrSXcIoQRQAEi7hxa/u2TePMdVyajK7lvuO5xuAOBU+PS9cuWBpFuObFKv22kHrpWTrdlxCaAAkF49y9+/7ZUrQbfTjmNs6rHligUz4wKA/eCZ02BYxk25N0O8ky8rbYRQAigApJvtYJSTdOKVK6tRhjSvXDmW3Sn3m5xqABDqff3PNXiROvy8N/K/h39W1YvZ0C9pMOlQ1eHdcjJ3xR1CCaAAkHLdTrvllSt92VuyZDSIXouiG5IJoHXLRX3I2QYAoSvJ/my2YWl2O+2eixsW55hQAigAZEfgwDYMg+i+6SoVRvjMeeXKXQcCaOBqxQIA4AxnX1bGFUIJoACQLS4tin1LUtcrV3YWDaMmfO5I6sreciyjdjnFAAATODkh0VAc3XEJoACQPU3ZnbTnrJwGS6lse+VK04Tkia2JZubbqqSrjgTPocDligUAwAlOv6yMOoQSQAEgg7qddt+EvZqDm1cbbpdXrkivdh0uye3xQLSCAgAm6XU7baczWJQhlAAKANl26GgIPctPUJnSCgoAmMb5l5VRjQklgAJAxpmw1KMkwn2+UgQAgAmcbwWNKoQSQAEAQ5sUQWh2mREXADAtiyVhI8MOoQRQAMDnup12U24s15J0rW6nvUMxAAAmaCZlyEaYIZQACgA49/lAESylL+kaxQAAmPKsSEzvo7BCKAEUAHAu04WUbrlLPGPphgsAmGIzSc+KMEIoARQAMC2IHmiwdijmD6CUGwBgkkYSJiMKM4QSQAEAMz8zJLUohpkdJK1SAQCIXUsJ7G20TAglgAIAZtbttPuSVgmiM9ntdtp0YQYATNKTtGqer5kIoQRQAABBNBprzIQLAJiiL+laEgPooiGUAAoACCOIBpTGKxWKy3TBBQBM0TLPi8S+0J03hBJAAQChBNFup70qaZfSkDSYtMlLcoUCABCLQIMuuL0k78Q8IZQACgAIO4zuaNAq2stoEfQ06E6V2C5VAIDYbHY77dU0PC9mDaEEUABAVEE0kHRZ2WoV7Wsw+ZDHEiwAgCkCDXrLHKRlh2YJoQRQAEDUQbRvWkU9SWl+5vRM2PaYfAgAMEVTg663ie9+e9ZFAigAwKEw2pO05pUru5K2JdUk5VJSkbjHpEMAgClaku5IaqYteM4aQgmgAADbYXTTBNGbkvwEBs9TSQ3GewIAztE3ofPU/LOV5uA5SwglgAIAXAijfQ265za8ciVnAulVE0hdayFtaTBu51RSQPAEgExqmXB59s8emX8PzPMtyHIhXSSAAgCSFkglyStXqpKqki6Zf/oxbUrPfFqS3tPgzXXAEQKAxD9nLlAKkNXx4wAAAFZJREFUdkIoARQAkJTKQssEwc+Z1tKq+c/RULoyZ8h8b+S/hwGzl5VuUgAAxBVCCaAAgKQH0/5IaAwoEQAA3PMaARQAAAAAEJv1vcMSpQAAAAAAiMP/B57PcKaT9JbEAAAAAElFTkSuQmCC;" parent="P2f5GnS22CJ_WSi383gp-1" vertex="1">
          <mxGeometry x="7.139999999999986" width="114.29" height="40" as="geometry" />
        </mxCell>
        <mxCell id="P2f5GnS22CJ_WSi383gp-2" value="" style="group" parent="1" vertex="1" connectable="0">
          <mxGeometry x="163" y="240" width="290" height="60" as="geometry" />
        </mxCell>
        <mxCell id="0OoeHOLDYsBDIjE2Zg5e-2" value="&lt;font style=&quot;font-size: 15px;&quot;&gt;qubership-nifi&lt;/font&gt;" style="rounded=1;whiteSpace=wrap;html=1;verticalAlign=bottom;align=center;strokeColor=#B3B3B3;" parent="P2f5GnS22CJ_WSi383gp-2" vertex="1">
          <mxGeometry width="290" height="60" as="geometry" />
        </mxCell>
        <mxCell id="0OoeHOLDYsBDIjE2Zg5e-3" value="" style="shape=image;imageAspect=0;aspect=fixed;verticalLabelPosition=bottom;verticalAlign=top;image=data:image/svg+xml,PHN2ZyB4bWxucz0iaHR0cDovL3d3dy53My5vcmcvMjAwMC9zdmciIHZpZXdCb3g9IjIuNjcwMDAwMDc2MjkzOTQ1MyAwLjAwMDk0Nzg4Nzk1MTA0MjUwMzEgODQuNjM5OTk5Mzg5NjQ4NDQgMTE4Ljc3OTA1MjczNDM3NSIgZGF0YS1uYW1lPSJMYXllciAxIiBpZD0iTGF5ZXJfMSIgd2lkdGg9Ijg0LjYzOTk5OTM4OTY0ODQ0IiBoZWlnaHQ9IjExOC43NzkwNTI3MzQzNzUiPiYjeGE7ICAgIDxkZWZzPiYjeGE7ICAgICAgICA8c3R5bGU+JiN4YTsgICAgICAgICAgICAuZHJvcCB7JiN4YTsgICAgICAgICAgICBmaWxsOiAjNzI4ZTliOyYjeGE7ICAgICAgICAgICAgfSYjeGE7ICAgICAgICAgICAgLnJlZmxlY3Rpb24geyYjeGE7ICAgICAgICAgICAgZmlsbDogI2I5YzZjZDsmI3hhOyAgICAgICAgICAgIH0mI3hhOyAgICAgICAgPC9zdHlsZT4mI3hhOyAgICA8L2RlZnM+JiN4YTsgICAgPHRpdGxlPm5pZmktZHJvcC13aGl0ZTwvdGl0bGU+JiN4YTsgICAgPGcgY2xhc3M9ImRyb3AiPiYjeGE7ICAgICAgICA8cGF0aCBkPSJNNDMuMjYsMTE1LjI5QTQwLjU5LDQwLjU5LDAsMCwxLDIuNjcsNzQuN2MwLTE5LjMsMTUuMTItMzcuNzksMjUuNDYtNTEuMjlBMTUyLDE1MiwwLDAsMCw0Mi44NC4yNmEuNDcuNDcsMCwwLDEsLjg0LDBBMTUxLjksMTUxLjksMCwwLDAsNTguMzksMjMuNDFjMTAuMzQsMTMuNSwyNS40NiwzMiwyNS40Niw1MS4yOUg1OS4wOGExLDEsMCwwLDAtMSwxVjg5LjU4SDQ0LjIxYTEsMSwwLDAsMC0xLDFaIi8+JiN4YTsgICAgICAgIDxwYXRoIGQ9Ik01OS4xMiwxMDUuNDRWOTIuMThINDYuODJhMSwxLDAsMCwwLTEsMXYxMi4zWiIvPiYjeGE7ICAgICAgICA8cGF0aCBkPSJNNDUuODcsMTE4LjY4YTM5LjU4LDM5LjU4LDAsMCwwLDEzLjI2LTIuNTV2LTYuNjhINDYuODJhMSwxLDAsMCwwLTEsMVoiLz4mI3hhOyAgICAgICAgPHBhdGggZD0iTTc0LDkwLjU2Vjc3LjMxSDYxLjY5YTEsMSwwLDAsMC0xLDF2MTIuM1oiLz4mI3hhOyAgICAgICAgPHBhdGggZD0iTTc1LjU4LDEwN2wwLDBhMi43OCwyLjc4LDAsMCwwLC44LTJWOTQuNThINjMuMTR2MTMuMjZINzMuNjFBMi43OCwyLjc4LDAsMCwwLDc1LjU4LDEwN1oiLz4mI3hhOyAgICAgICAgPHBhdGggZD0iTTY0LDExOC43OGEzOS42NCwzOS42NCwwLDAsMCw5LjgtNkg2NFoiLz4mI3hhOyAgICAgICAgPHBhdGggZD0iTTg0LjY4LDkwLjU2YTM5LjQ3LDM5LjQ3LDAsMCwwLDIuNTUtMTMuMjVINzhWOTAuNTZaIi8+JiN4YTsgICAgICAgIDxwYXRoIGQ9Ik04MS4zMSwxMDUuMjhhMzkuNTYsMzkuNTYsMCwwLDAsNi05LjhoLTZaIi8+JiN4YTsgICAgICAgIDxwYXRoIGQ9Ik04MS4zMSwxMDUuMjhhMzkuNTYsMzkuNTYsMCwwLDAsNi05LjhoLTZaIi8+JiN4YTsgICAgPC9nPiYjeGE7ICAgIDxnPiYjeGE7ICAgICAgICA8cGF0aCBkPSJNMzQuMzMsMTkuNjZjLS43NSwxLTEuNDksMi4xLTIuMjQsMy4xNC0yLjM4LDMuMjgtNC44OCw2LjQ3LTcuMzMsOS42OSwxLC4xMywxLjkyLjI4LDIuODkuNDQsMi0zLjQyLDQuMTMtNi44Myw2LjA5LTEwLjMuNTUtMSwxLjA5LTIsMS42My0yLjkzQzM1Ljc5LDE4LjkzLDM0Ljc5LDE5LDM0LjMzLDE5LjY2WiIgY2xhc3M9InJlZmxlY3Rpb24iLz4mI3hhOyAgICAgICAgPHBhdGggZD0iTTI0LjY1LDM4Yy4zNi0uNjMuNzMtMS4yNiwxLjEtMS44OXEtMS42NS0uMzItMy4yOS0uNTloMGExMzUuNzksMTM1Ljc5LDAsMCwwLTkuNSwxNC41OGMtNS4xLDkuMjUtOC42NCwxOS41OS03LDMwLjI3YTM4LDM4LDAsMCwwLDEyLjY1LDIyLjg1LDM3LjMzLDM3LjMzLDAsMCwwLDQuNTksMy4zOS40OS40OSwwLDAsMCwuNi0uNzYsNDAuNzEsNDAuNzEsMCwwLDEtMTEtMTguNTFjLTMtMTEuMi0uNTEtMjIuNjgsMy44MS0zMy4xOUExNDMuNzEsMTQzLjcxLDAsMCwxLDI0LjY1LDM4WiIgY2xhc3M9InJlZmxlY3Rpb24iLz4mI3hhOyAgICA8L2c+JiN4YTs8L3N2Zz4=;" parent="P2f5GnS22CJ_WSi383gp-2" vertex="1">
          <mxGeometry x="7" y="10" width="28.57" height="40" as="geometry" />
        </mxCell>
      </root>
    </mxGraphModel>
  </diagram>
</mxfile>
